Normalized EMG Linear Envelopes
nRows=285
nColumns=4

endheader
time	 med_gas_r	  soleus_r	 tib_ant_r	
2.96069	  0.070761	  0.041491	  0.020948	
2.99395	  0.072484	  0.042660	  0.021075	
3.02722	  0.073970	  0.043988	  0.021177	
3.06048	  0.075078	  0.045532	  0.021238	
3.09375	  0.075814	  0.047163	  0.021244	
3.12702	  0.076341	  0.048636	  0.021181	
3.16028	  0.076930	  0.049722	  0.021037	
3.19355	  0.077864	  0.050307	  0.020807	
3.22681	  0.079315	  0.050410	  0.020511	
3.26008	  0.081241	  0.050167	  0.020201	
3.29335	  0.083352	  0.049795	  0.019941	
3.32661	  0.085232	  0.049553	  0.019764	
3.35988	  0.086544	  0.049672	  0.019640	
3.39315	  0.087218	  0.050283	  0.019501	
3.42641	  0.087477	  0.051365	  0.019303	
3.45968	  0.087698	  0.052745	  0.019071	
3.49294	  0.088195	  0.054160	  0.018889	
3.52621	  0.089059	  0.055343	  0.018845	
3.55948	  0.090127	  0.056087	  0.018988	
3.59274	  0.091053	  0.056263	  0.019305	
3.62601	  0.091421	  0.055795	  0.019732	
3.65927	  0.090864	  0.054663	  0.020176	
3.69254	  0.089216	  0.052964	  0.020569	
3.72581	  0.086639	  0.050962	  0.020904	
3.75907	  0.083611	  0.049085	  0.021223	
3.79234	  0.080683	  0.047813	  0.021543	
3.8256	  0.078158	  0.047528	  0.021787	
3.85887	  0.075955	  0.048370	  0.021802	
3.89214	  0.073811	  0.050164	  0.021452	
3.9254	  0.071632	  0.052461	  0.020718	
3.95867	  0.069659	  0.054705	  0.019714	
3.99194	  0.068305	  0.056449	  0.018621	
4.0252	  0.067838	  0.057490	  0.017594	
4.05847	  0.068227	  0.057857	  0.016718	
4.09173	  0.069259	  0.057681	  0.016016	
4.125	  0.070757	  0.057082	  0.015479	
4.15827	  0.072664	  0.056127	  0.015097	
4.19153	  0.074958	  0.054862	  0.014878	
4.2248	  0.077534	  0.053340	  0.014844	
4.25806	  0.080187	  0.051638	  0.015019	
4.29133	  0.082655	  0.049863	  0.015414	
4.3246	  0.084639	  0.048174	  0.016003	
4.35786	  0.085792	  0.046781	  0.016709	
4.39113	  0.085797	  0.045893	  0.017419	
4.4244	  0.084536	  0.045614	  0.018010	
4.45766	  0.082208	  0.045876	  0.018412	
4.49093	  0.079263	  0.046481	  0.018635	
4.52419	  0.076188	  0.047240	  0.018752	
4.55746	  0.073337	  0.048077	  0.018835	
4.59073	  0.070917	  0.049001	  0.018899	
4.62399	  0.069060	  0.049975	  0.018917	
4.65726	  0.067840	  0.050844	  0.018861	
4.69052	  0.067229	  0.051401	  0.018745	
4.72379	  0.067063	  0.051539	  0.018611	
4.75706	  0.067108	  0.051323	  0.018490	
4.79032	  0.067195	  0.050946	  0.018388	
4.82359	  0.067330	  0.050646	  0.018286	
4.85685	  0.067704	  0.050660	  0.018163	
4.89012	  0.068576	  0.051196	  0.018006	
4.92339	  0.070074	  0.052343	  0.017803	
4.95665	  0.072079	  0.053938	  0.017543	
4.98992	  0.074275	  0.055531	  0.017221	
5.02319	  0.076354	  0.056541	  0.016851	
5.05645	  0.078184	  0.056555	  0.016467	
5.08972	  0.079816	  0.055528	  0.016106	
5.12298	  0.081361	  0.053734	  0.015781	
5.15625	  0.082902	  0.051573	  0.015473	
5.18952	  0.084511	  0.049390	  0.015154	
5.22278	  0.086285	  0.047451	  0.014819	
5.25605	  0.088252	  0.045960	  0.014500	
5.28931	  0.090200	  0.045042	  0.014244	
5.32258	  0.091621	  0.044698	  0.014060	
5.35585	  0.091927	  0.044809	  0.013900	
5.38911	  0.090798	  0.045226	  0.013689	
5.42238	  0.088392	  0.045841	  0.013384	
5.45565	  0.085248	  0.046589	  0.013021	
5.48891	  0.081988	  0.047393	  0.012703	
5.52218	  0.079085	  0.048154	  0.012569	
5.55544	  0.076827	  0.048823	  0.012777	
5.58871	  0.075448	  0.049499	  0.013565	
5.62198	  0.075255	  0.050452	  0.015334	
5.65524	  0.076647	  0.052033	  0.018693	
5.68851	  0.080020	  0.054543	  0.024406	
5.72177	  0.085650	  0.058175	  0.033251	
5.75504	  0.093588	  0.063017	  0.045814	
5.78831	  0.103585	  0.069022	  0.062240	
5.82157	  0.115056	  0.075898	  0.082020	
5.85484	  0.127155	  0.083067	  0.103986	
5.8881	  0.139036	  0.089907	  0.126640	
5.92137	  0.150208	  0.096226	  0.148729	
5.95464	  0.160707	  0.102583	  0.169655	
5.9879	  0.170898	  0.110074	  0.189402	
6.02117	  0.181045	  0.119637	  0.208068	
6.05444	  0.191027	  0.131424	  0.225473	
6.0877	  0.200349	  0.144702	  0.241190	
6.12097	  0.208383	  0.158368	  0.254955	
6.15423	  0.214595	  0.171608	  0.266977	
6.1875	  0.218693	  0.184174	  0.277804	
6.22077	  0.220706	  0.196144	  0.287857	
6.25403	  0.221033	  0.207519	  0.297124	
6.2873	  0.220479	  0.218127	  0.305345	
6.32056	  0.220149	  0.227859	  0.312484	
6.35383	  0.221173	  0.236870	  0.319003	
6.3871	  0.224356	  0.245435	  0.325741	
6.42036	  0.230034	  0.253656	  0.333627	
6.45363	  0.238221	  0.261330	  0.343395	
6.4869	  0.248812	  0.268092	  0.355326	
6.52016	  0.261530	  0.273659	  0.369069	
6.55343	  0.275662	  0.277979	  0.383792	
6.58669	  0.290026	  0.281279	  0.398746	
6.61996	  0.303408	  0.284033	  0.413804	
6.65323	  0.315224	  0.286841	  0.429396	
6.68649	  0.325788	  0.290174	  0.445763	
6.71976	  0.335921	  0.294121	  0.462177	
6.75302	  0.346250	  0.298389	  0.476907	
6.78629	  0.356775	  0.302668	  0.488121	
6.81956	  0.366931	  0.307089	  0.495064	
6.85282	  0.375990	  0.312272	  0.498595	
6.88609	  0.383559	  0.318873	  0.500759	
6.91935	  0.389967	  0.327071	  0.503858	
6.95262	  0.396302	  0.336539	  0.509728	
6.98589	  0.403858	  0.346865	  0.519434	
7.01915	  0.413242	  0.357906	  0.533236	
7.05242	  0.423827	  0.369621	  0.550695	
7.08569	  0.434069	  0.381520	  0.570898	
7.11895	  0.442368	  0.392284	  0.592686	
7.15222	  0.447709	  0.399965	  0.614687	
7.18548	  0.449656	  0.402710	  0.635167	
7.21875	  0.448030	  0.399583	  0.651938	
7.25202	  0.442784	  0.391063	  0.662547	
7.28528	  0.434249	  0.379013	  0.664751	
7.31855	  0.423494	  0.366202	  0.657217	
7.35181	  0.412417	  0.355509	  0.640345	
7.38508	  0.403349	  0.349059	  0.616832	
7.41835	  0.398315	  0.347656	  0.591398	
7.45161	  0.398436	  0.350822	  0.569384	
7.48488	  0.403792	  0.357325	  0.554775	
7.51815	  0.413636	  0.365649	  0.548839	
7.55141	  0.426601	  0.374115	  0.550227	
7.58468	  0.440890	  0.380999	  0.556283	
7.61794	  0.454659	  0.385093	  0.564576	
7.65121	  0.466576	  0.386413	  0.573714	
7.68448	  0.476182	  0.386287	  0.583145	
7.71774	  0.483719	  0.386540	  0.592442	
7.75101	  0.489515	  0.388408	  0.600809	
7.78427	  0.493414	  0.392064	  0.607313	
7.81754	  0.494707	  0.396901	  0.611575	
7.85081	  0.492580	  0.402003	  0.614231	
7.88407	  0.486654	  0.406301	  0.616608	
7.91734	  0.477194	  0.408550	  0.619800	
7.9506	  0.464971	  0.407600	  0.623808	
7.98387	  0.451095	  0.403022	  0.627449	
8.01714	  0.436968	  0.395501	  0.629169	
8.0504	  0.424265	  0.386535	  0.628186	
8.08367	  0.414668	  0.377596	  0.625032	
8.11694	  0.409348	  0.369473	  0.621048	
8.1502	  0.408487	  0.362316	  0.617315	
8.18347	  0.411274	  0.356205	  0.614021	
8.21673	  0.416459	  0.351528	  0.610775	
8.25	  0.423051	  0.348693	  0.607500	
8.28327	  0.430616	  0.347573	  0.605027	
8.31653	  0.439094	  0.347558	  0.604818	
8.3498	  0.448508	  0.348476	  0.607994	
8.38306	  0.458870	  0.351460	  0.614491	
8.41633	  0.470243	  0.358664	  0.623125	
8.4496	  0.482718	  0.371797	  0.632544	
8.48286	  0.496155	  0.390624	  0.642148	
8.51613	  0.509806	  0.412563	  0.651972	
8.5494	  0.522171	  0.433563	  0.661598	
8.58266	  0.531346	  0.449594	  0.669291	
8.61593	  0.535710	  0.457911	  0.672410	
8.64919	  0.534347	  0.457551	  0.668924	
8.68246	  0.526974	  0.449106	  0.658737	
8.71573	  0.513721	  0.434211	  0.643770	
8.74899	  0.495284	  0.415218	  0.626892	
8.78226	  0.473316	  0.395069	  0.610579	
8.81552	  0.450485	  0.377006	  0.596150	
8.84879	  0.429857	  0.363900	  0.583825	
8.88206	  0.413940	  0.357414	  0.573283	
8.91532	  0.403988	  0.357524	  0.564159	
8.94859	  0.399895	  0.362681	  0.556052	
8.98185	  0.400589	  0.370521	  0.548212	
9.01512	  0.404660	  0.378815	  0.539575	
9.04839	  0.410931	  0.386308	  0.529566	
9.08165	  0.418750	  0.393059	  0.519078	
9.11492	  0.427858	  0.400012	  0.510542	
9.14819	  0.437917	  0.408049	  0.506751	
9.18145	  0.448096	  0.417185	  0.509464	
9.21472	  0.457063	  0.426465	  0.519092	
9.24798	  0.463417	  0.434456	  0.535491	
9.28125	  0.466246	  0.439868	  0.558515	
9.31452	  0.465462	  0.441939	  0.587312	
9.34778	  0.461799	  0.440564	  0.619056	
9.38105	  0.456526	  0.436236	  0.648872	
9.41431	  0.451089	  0.429851	  0.671687	
9.44758	  0.446885	  0.422510	  0.684798	
9.48085	  0.445168	  0.415394	  0.689113	
9.51411	  0.446879	  0.409611	  0.688099	
9.54738	  0.452257	  0.405862	  0.685328	
9.58065	  0.460570	  0.404062	  0.682442	
9.61391	  0.470425	  0.403346	  0.678920	
9.64718	  0.480506	  0.402639	  0.673540	
9.68044	  0.490039	  0.401344	  0.666156	
9.71371	  0.498517	  0.399541	  0.658213	
9.74698	  0.505152	  0.397635	  0.651638	
9.78024	  0.508859	  0.395901	  0.647290	
9.81351	  0.509006	  0.394422	  0.644464	
9.84677	  0.506175	  0.393321	  0.641722	
9.88004	  0.502010	  0.392808	  0.637983	
9.91331	  0.498058	  0.392770	  0.632860	
9.94657	  0.494577	  0.392315	  0.626341	
9.97984	  0.490478	  0.389996	  0.618552	
10.0131	  0.484491	  0.384824	  0.609873	
10.0464	  0.476457	  0.377191	  0.601018	
10.0796	  0.467527	  0.368783	  0.592785	
10.1129	  0.459166	  0.361487	  0.585671	
10.1462	  0.451959	  0.356206	  0.579681	
10.1794	  0.445249	  0.352508	  0.574363	
10.2127	  0.437764	  0.349208	  0.568960	
10.246	  0.428655	  0.345353	  0.562679	
10.2792	  0.418251	  0.340899	  0.555113	
10.3125	  0.408127	  0.336724	  0.546554	
10.3458	  0.400428	  0.334051	  0.537860	
10.379	  0.396736	  0.333655	  0.529952	
10.4123	  0.397031	  0.335300	  0.523441	
10.4456	  0.399461	  0.337777	  0.518816	
10.4788	  0.401239	  0.339545	  0.516889	
10.5121	  0.400143	  0.339563	  0.518782	
10.5454	  0.395613	  0.337741	  0.525165	
10.5786	  0.388722	  0.334740	  0.535272	
10.6119	  0.381197	  0.331341	  0.546619	
10.6452	  0.374258	  0.327894	  0.555772	
10.6784	  0.367942	  0.324138	  0.559651	
10.7117	  0.361175	  0.319327	  0.556485	
10.745	  0.352431	  0.312462	  0.545911	
10.7782	  0.340561	  0.302563	  0.528426	
10.8115	  0.325318	  0.288988	  0.504743	
10.8448	  0.307330	  0.271703	  0.475495	
10.878	  0.287717	  0.251331	  0.441364	
10.9113	  0.267726	  0.229014	  0.403543	
10.9446	  0.248639	  0.206260	  0.364264	
10.9778	  0.231790	  0.184867	  0.326938	
11.0111	  0.218464	  0.166833	  0.295533	
11.0444	  0.209611	  0.154085	  0.273271	
11.0776	  0.205536	  0.147950	  0.261338	
11.1109	  0.205718	  0.148472	  0.258303	
11.1442	  0.208778	  0.153917	  0.260555	
11.1774	  0.212672	  0.160997	  0.263590	
11.2107	  0.215191	  0.166067	  0.263612	
11.244	  0.214666	  0.166748	  0.258673	
11.2772	  0.210452	  0.162848	  0.248708	
11.3105	  0.202870	  0.155875	  0.234556	
11.3437	  0.192762	  0.147641	  0.216906	
11.377	  0.181037	  0.139094	  0.196050	
11.4103	  0.168480	  0.130159	  0.172386	
11.4435	  0.155762	  0.120387	  0.146920	
11.4768	  0.143484	  0.109693	  0.121197	
11.5101	  0.132190	  0.098685	  0.096848	
11.5433	  0.122378	  0.088494	  0.075186	
11.5766	  0.114515	  0.080329	  0.057076	
11.6099	  0.108973	  0.075024	  0.042940	
11.6431	  0.105883	  0.072772	  0.032783	
11.6764	  0.105004	  0.073186	  0.026228	
11.7097	  0.105753	  0.075560	  0.022628	
11.7429	  0.107409	  0.079132	  0.021224	
11.7762	  0.109377	  0.083199	  0.021276	
11.8095	  0.111316	  0.087166	  0.022135	
11.8427	  0.113106	  0.090649	  0.023275	
11.876	  0.114749	  0.093612	  0.024327	
11.9093	  0.116318	  0.096326	  0.025118	
11.9425	  0.117924	  0.099058	  0.025663	
11.9758	  0.119630	  0.101683	  0.026076	
12.0091	  0.121302	  0.103542	  0.026432	
12.0423	  0.122529	  0.103743	  0.026677	
12.0756	  0.122725	  0.101658	  0.026674	
12.1089	  0.121398	  0.097266	  0.026328	
12.1421	  0.118402	  0.091148	  0.025687	
12.1754	  0.114003	  0.084221	  0.024917	
12.2087	  0.108694	  0.077426	  0.024190	
12.2419	  0.102888	  0.071500	  0.023595	
12.2752	  0.096715	  0.066868	  0.023127	
12.3085	  0.090083	  0.063647	  0.022743	
12.3417	  0.082905	  0.061718	  0.022416	
12.375	  0.075323	  0.060823	  0.022138	
12.4083	  0.067758	  0.060654	  0.021906	
